<svg height="1200" node-id="1" sillyvg="true" template-height="1200" template-width="1600" version="1.1" viewBox="0 0 1600 1200" width="1600" xmlns="http://www.w3.org/2000/svg" xmlns:xlink="http://www.w3.org/1999/xlink"><defs node-id="143"></defs><path d="M 346.20 1062.40 L 340.80 1059.20 L 331.00 1052.00 L 326.50 1048.00 L 320.80 1042.20 L 315.40 1036.10 L 310.40 1029.50 L 301.40 1015.60 L 297.30 1008.20 L 291.60 996.80 L 286.40 985.10 L 277.00 961.50 L 269.50 940.80 L 262.30 919.90 L 255.50 898.80 L 249.00 877.40 L 243.00 855.90 L 237.40 834.30 L 232.30 812.60 L 227.60 790.80 L 223.40 768.90 L 219.90 747.00 L 216.80 725.10 L 214.30 703.20 L 212.80 685.60 L 211.60 668.00 L 210.90 650.60 L 210.60 633.20 L 210.60 615.90 L 211.20 598.50 L 212.20 581.30 L 213.70 564.10 L 215.60 547.20 L 218.10 530.30 L 221.00 513.40 L 224.50 496.80 L 228.50 480.30 L 233.00 464.00 L 238.10 447.80 L 243.70 431.80 L 249.90 416.00 L 256.70 400.40 L 264.20 385.00 L 272.20 369.80 L 279.30 357.40 L 286.80 345.20 L 294.90 333.10 L 303.40 321.20 L 312.40 309.40 L 321.90 297.70 L 331.60 286.50 L 341.90 275.50 L 352.70 264.60 L 364.10 253.90 L 376.10 243.30 L 388.60 232.90 L 399.70 224.30 L 411.20 215.90 L 423.10 207.80 L 435.30 199.90 L 447.80 192.50 L 460.50 185.30 L 473.50 178.50 L 486.80 172.00 L 500.30 166.00 L 513.90 160.30 L 527.70 155.00 L 541.70 150.20 L 555.80 145.80 L 570.00 141.80 L 584.30 138.40 L 598.60 135.40 L 613.00 132.90 L 627.50 131.00 L 641.90 129.50 L 656.20 128.70 L 670.70 128.40 L 685.00 128.60 L 699.10 129.50 L 713.20 131.00 L 723.30 132.50 L 733.40 134.50 L 740.00 136.20 L 752.80 140.60 L 759.00 143.40 L 765.00 146.60 L 770.70 150.30 L 775.30 153.70 L 783.60 161.20 L 787.30 165.40 L 792.00 171.30 L 796.20 177.60 L 800.00 184.20 L 803.40 191.00 L 806.30 198.10 L 808.90 205.40 L 811.10 212.80 L 812.80 220.30 L 814.20 227.90 L 815.60 238.90 L 817.40 260.70 L 817.70 271.60 L 817.50 286.10 L 816.90 300.50 L 815.70 315.00 L 812.10 343.80 L 805.90 379.80 L 788.00 465.50 L 781.80 499.20 L 777.60 528.00 L 775.90 543.70 L 774.50 559.70 L 773.70 576.20 L 773.60 598.40 L 774.90 620.50 L 776.20 631.20 L 777.90 641.80 L 780.10 652.20 L 782.90 662.10 L 786.20 671.60 L 789.10 678.50 L 792.40 685.10 L 796.00 691.40 L 800.00 697.30 L 804.40 702.90 L 809.20 708.10 L 814.40 713.00 L 820.10 717.40 L 824.60 720.30 L 834.00 725.00 L 841.50 727.70 L 849.20 729.90 L 864.80 733.00 L 879.10 735.00 L 893.40 736.40 L 907.60 737.20 L 921.90 737.40 L 950.50 736.90 L 972.00 735.80 L 1014.80 733.00 L 1050.40 731.20 L 1078.80 731.10 L 1093.00 731.70 L 1107.20 732.80 L 1121.30 734.50 L 1131.80 736.30 L 1142.40 738.40 L 1153.00 741.10 L 1163.60 744.20 L 1174.10 747.90 L 1184.40 752.10 L 1194.40 756.70 L 1204.10 761.80 L 1213.60 767.40 L 1222.80 773.40 L 1231.70 779.80 L 1240.30 786.60 L 1248.70 793.80 L 1256.70 801.40 L 1264.40 809.40 L 1271.70 817.60 L 1278.70 826.10 L 1285.30 835.00 L 1291.60 844.10 L 1297.60 853.50 L 1303.10 863.10 L 1308.20 873.00 L 1313.00 883.00 L 1317.30 893.30 L 1321.30 903.70 L 1324.80 914.30 L 1327.80 925.00 L 1330.40 935.80 L 1332.60 946.80 L 1334.30 957.80 L 1335.60 968.90 L 1336.30 980.00 L 1336.60 991.20 L 1336.40 1002.40 L 1335.70 1013.60 L 1334.40 1024.70 L 1332.60 1035.80 L 1330.30 1046.90 L 1327.50 1058.00" fill="#f7f7f9" fill-rule="nonzero" id="background" node-id="5" stroke="none" target-height="934" target-width="1126" target-x="210.6" target-y="128.4"/><path d="M 211.80 1053.40 L 1435.10 1055.10" fill="none" node-id="148" stroke="#000000" stroke-linecap="butt" stroke-width="2" target-height="1.6999512" target-width="1223.2999" target-x="211.8" target-y="1053.4"/><g node-id="462"><g node-id="475"><path d="M 316.80 453.50 L 289.60 494.90 L 288.60 495.70 L 287.40 496.20 L 286.20 496.10 L 285.00 495.60 L 228.20 453.50 L 316.80 453.50 Z" fill="#cccdce" fill-opacity="0.5" fill-rule="nonzero" group-id="1,14" node-id="153" stroke="none" target-height="42.700012" target-width="88.59999" target-x="228.2" target-y="453.5"/></g><g node-id="476"><path d="M 189.40 455.60 L 439.10 457.60 L 440.30 457.40 L 441.20 456.70 L 441.70 455.70 L 441.60 454.60 L 375.00 268.50 L 374.60 267.90 L 373.40 267.00 L 137.70 266.90 L 136.60 267.20 L 135.70 267.80 L 135.20 268.70 L 135.20 269.80 L 186.90 453.90 L 187.80 455.10 L 189.40 455.60 Z" fill="#cccdce" fill-opacity="0.5" fill-rule="nonzero" group-id="1,15" node-id="158" stroke="none" target-height="190.70001" target-width="306.5" target-x="135.2" target-y="266.9"/></g><path d="M 198.10 452.50 L 447.90 454.50 L 449.10 454.20 L 450.00 453.60 L 450.40 452.60 L 450.40 451.50 L 383.80 268.20 L 383.40 267.50 L 382.10 266.70 L 146.50 266.60 L 145.30 266.80 L 144.50 267.50 L 144.00 268.40 L 144.00 269.40 L 195.70 450.80 L 196.60 452.00 L 198.10 452.50 Z" fill="#ffffff" fill-rule="nonzero" group-id="1" node-id="161" stroke="#000000" stroke-linecap="butt" stroke-width="1" target-height="187.9" target-width="306.4" target-x="144" target-y="266.6"/><path d="M 322.10 453.10 L 294.80 493.10 L 293.90 494.00 L 292.70 494.40 L 291.40 494.30 L 290.20 493.80 L 233.50 453.10 L 322.10 453.10 Z" fill="#ffffff" fill-rule="nonzero" group-id="1" node-id="163" stroke="#000000" stroke-linecap="butt" stroke-width="1" target-height="41.299988" target-width="88.600006" target-x="233.5" target-y="453.1"/><path d="M 222.40 432.20 L 409.00 432.30 L 411.40 431.60 L 412.80 429.90 L 412.90 427.80 L 382.20 336.10 L 381.60 335.10 L 379.60 333.70 L 198.20 333.90 L 195.90 334.50 L 194.50 336.10 L 194.30 338.20 L 218.50 429.50 L 219.00 430.60 L 219.90 431.40 L 221.00 432.00 L 222.40 432.20 Z" fill="#ffffff" fill-rule="nonzero" group-id="1" node-id="165" stroke="#000000" stroke-linecap="butt" stroke-width="1" target-height="98.599976" target-width="218.59999" target-x="194.3" target-y="333.7"/><path d="M 172.30 315.40 L 244.80 316.50" fill="none" group-id="1" node-id="167" stroke="#000000" stroke-linecap="butt" stroke-width="1" target-height="1.1000061" target-width="72.5" target-x="172.3" target-y="315.4"/><path d="M 176.00 302.30 L 223.10 302.80" fill="none" group-id="1" node-id="169" stroke="#000000" stroke-linecap="butt" stroke-width="1" target-height="0.5" target-width="47.100006" target-x="176" target-y="302.3"/><path d="M 371.00 351.90 L 341.30 351.90" fill="none" group-id="1" node-id="171" stroke="#e49948" stroke-linecap="butt" stroke-width="2" target-height="0" target-width="29.700012" target-x="341.3" target-y="351.9"/><path d="M 306.10 351.80 L 326.40 351.50" fill="none" group-id="1" node-id="173" stroke="#e49948" stroke-linecap="butt" stroke-width="2" target-height="0.2999878" target-width="20.299988" target-x="306.1" target-y="351.5"/><path d="M 291.70 351.90 L 222.90 353.00" fill="none" group-id="1" node-id="175" stroke="#e49948" stroke-linecap="butt" stroke-width="2" target-height="1.1000061" target-width="68.80002" target-x="222.9" target-y="351.9"/><path d="M 375.40 369.40 L 320.80 370.00" fill="none" group-id="1" node-id="177" stroke="#3d7ca3" stroke-linecap="butt" stroke-width="2" target-height="0.6000061" target-width="54.600006" target-x="320.8" target-y="369.4"/><path d="M 302.90 370.50 L 229.70 371.10" fill="none" group-id="1" node-id="179" stroke="#3d7ca3" stroke-linecap="butt" stroke-width="2" target-height="0.6000061" target-width="73.2" target-x="229.7" target-y="370.5"/><path d="M 309.40 392.30 L 236.90 392.30" fill="none" group-id="1" node-id="181" stroke="#1b236d" stroke-linecap="butt" stroke-width="2" target-height="0" target-width="72.5" target-x="236.9" target-y="392.3"/><path d="M 371.60 274.90 L 360.40 291.90" fill="none" group-id="1" node-id="183" stroke="#000000" stroke-linecap="butt" stroke-width="1" target-height="17" target-width="11.200012" target-x="360.4" target-y="274.9"/><path d="M 375.90 290.80 L 357.30 276.00" fill="none" group-id="1" node-id="185" stroke="#000000" stroke-linecap="butt" stroke-width="1" target-height="14.799988" target-width="18.600006" target-x="357.3" target-y="276"/><path d="M 409.40 316.40 L 450.30 315.80 L 463.30 362.30 L 423.10 362.30" fill="none" group-id="1" node-id="187" stroke="#000000" stroke-linecap="butt" stroke-width="1" target-height="46.5" target-width="53.899994" target-x="409.4" target-y="315.8"/><g node-id="477"><path d="M 448.30 332.20 L 448.50 335.70 L 447.80 338.90 L 446.80 340.60 L 445.60 341.70 L 444.10 342.40 L 442.50 342.40 L 440.90 341.90 L 439.30 340.70 L 438.30 339.50 L 436.70 336.50 L 436.00 333.00 L 436.20 329.60 L 437.70 326.40 L 438.90 325.20 L 440.40 324.60 L 442.00 324.60 L 443.60 325.10 L 445.20 326.30 L 447.10 328.90 L 448.30 332.20 Z" fill="none" group-id="1,16" node-id="191" stroke="#000000" stroke-linecap="butt" stroke-width="0.9999697" target-height="17.799988" target-width="12.5" target-x="436" target-y="324.6"/></g><g node-id="478"><path d="M 182.30 285.00 L 182.40 288.60 L 181.10 291.40 L 180.00 292.30 L 178.70 292.90 L 177.20 293.00 L 175.80 292.70 L 174.50 291.90 L 172.50 289.30 L 171.80 287.50 L 171.70 283.90 L 173.10 281.10 L 174.10 280.10 L 175.50 279.60 L 176.90 279.50 L 178.30 279.80 L 180.80 281.80 L 182.30 285.00 Z" fill="#4f71ba" fill-rule="nonzero" group-id="1,17" node-id="196" stroke="#000000" stroke-linecap="butt" stroke-width="1.0000226" target-height="13.5" target-width="10.699997" target-x="171.7" target-y="279.5"/></g><g node-id="479"><path d="M 199.00 284.60 L 199.30 286.50 L 198.60 289.70 L 197.80 291.10 L 196.70 292.00 L 195.40 292.60 L 194.00 292.70 L 192.60 292.30 L 191.20 291.50 L 189.20 288.90 L 188.60 287.20 L 188.30 285.30 L 189.00 282.10 L 189.80 280.70 L 190.90 279.80 L 192.20 279.20 L 193.70 279.10 L 195.00 279.50 L 196.40 280.30 L 198.40 282.90 L 199.00 284.60 Z" fill="#f23645" fill-rule="nonzero" group-id="1,18" node-id="201" stroke="#000000" stroke-linecap="butt" stroke-width="1.0000226" target-height="13.600006" target-width="11" target-x="188.3" target-y="279.1"/></g><path d="M 218.70 284.50 L 218.90 286.40 L 218.30 289.60 L 217.50 290.90 L 216.40 291.80 L 215.10 292.40 L 213.60 292.50 L 212.30 292.20 L 210.90 291.30 L 208.90 288.80 L 208.20 287.00 L 208.00 285.10 L 208.60 281.90 L 209.50 280.60 L 210.50 279.60 L 211.90 279.00 L 213.30 279.00 L 214.70 279.30 L 216.00 280.10 L 218.10 282.70 L 218.70 284.50 Z" fill="#de9a46" fill-rule="nonzero" group-id="1,19" node-id="206" stroke="#000000" stroke-linecap="butt" stroke-width="1.0000226" target-height="13.5" target-width="10.899994" target-x="208" target-y="279"/></g><g node-id="463"><path d="M 468.70 177.10 L 468.50 180.50 L 467.90 183.60 L 466.90 186.70 L 465.50 189.50 L 461.90 194.50 L 459.60 196.50 L 454.50 199.70 L 451.60 200.80 L 448.60 201.40 L 445.40 201.70 L 442.20 201.40 L 439.20 200.80 L 436.30 199.70 L 431.20 196.50 L 428.90 194.50 L 425.30 189.50 L 423.90 186.70 L 422.90 183.60 L 422.30 180.50 L 422.10 177.10 L 422.30 173.70 L 422.90 170.50 L 423.90 167.50 L 425.30 164.70 L 428.90 159.70 L 431.20 157.60 L 436.30 154.50 L 439.20 153.40 L 442.20 152.80 L 445.40 152.50 L 448.60 152.80 L 451.60 153.40 L 454.50 154.50 L 459.60 157.60 L 461.90 159.70 L 465.50 164.70 L 466.90 167.50 L 467.90 170.50 L 468.50 173.70 L 468.70 177.10 Z" fill="#ff6666" fill-rule="nonzero" group-id="2" node-id="211" stroke="none" target-height="49.199997" target-width="46.600006" target-x="422.1" target-y="152.5"/><path d="M 462.50 177.10 L 462.30 180.50 L 461.70 183.60 L 460.70 186.70 L 459.30 189.50 L 455.70 194.50 L 453.40 196.50 L 448.30 199.70 L 445.40 200.80 L 442.40 201.40 L 439.20 201.70 L 436.00 201.40 L 433.00 200.80 L 430.10 199.70 L 425.00 196.50 L 420.70 192.10 L 419.10 189.50 L 416.70 183.60 L 416.10 180.50 L 415.90 177.10 L 416.10 173.70 L 416.70 170.50 L 417.70 167.50 L 420.70 162.10 L 425.00 157.60 L 430.10 154.50 L 433.00 153.40 L 436.00 152.80 L 439.20 152.50 L 442.40 152.80 L 445.40 153.40 L 448.30 154.50 L 453.40 157.60 L 455.70 159.70 L 459.30 164.70 L 460.70 167.50 L 461.70 170.50 L 462.30 173.70 L 462.50 177.10 Z" fill="none" group-id="2" node-id="213" stroke="#000000" stroke-linecap="butt" stroke-width="1" target-height="49.199997" target-width="46.600006" target-x="415.9" target-y="152.5"/></g><g node-id="464"><path d="M 1478.50 895.40 L 1478.20 899.30 L 1477.50 903.00 L 1476.30 906.50 L 1474.80 909.80 L 1472.80 912.80 L 1470.50 915.60 L 1467.90 918.00 L 1465.10 920.00 L 1461.90 921.70 L 1458.60 922.90 L 1455.10 923.60 L 1451.40 923.90 L 1447.70 923.60 L 1444.20 922.90 L 1440.80 921.70 L 1437.70 920.00 L 1434.90 918.00 L 1432.20 915.60 L 1430.00 912.80 L 1428.00 909.80 L 1426.40 906.50 L 1425.30 903.00 L 1424.60 899.30 L 1424.30 895.40 L 1424.60 891.50 L 1425.30 887.80 L 1426.40 884.30 L 1428.00 881.00 L 1430.00 878.00 L 1432.20 875.20 L 1434.90 872.80 L 1437.70 870.80 L 1440.80 869.10 L 1444.20 867.90 L 1447.70 867.20 L 1451.40 866.90 L 1455.10 867.20 L 1458.60 867.90 L 1461.90 869.10 L 1465.10 870.80 L 1467.90 872.80 L 1470.50 875.20 L 1472.80 878.00 L 1474.80 881.00 L 1476.30 884.30 L 1477.50 887.80 L 1478.20 891.50 L 1478.50 895.40 Z" fill="none" group-id="3" node-id="217" stroke="#6836c4" stroke-linecap="butt" stroke-width="1" target-height="57" target-width="54.19995" target-x="1424.3" target-y="866.9"/><path d="M 822.50 645.30 L 821.80 649.40 L 820.00 652.90 L 817.20 655.50 L 815.60 656.40 L 811.90 657.10 L 808.20 656.40 L 806.50 655.50 L 803.80 652.90 L 801.90 649.40 L 801.30 645.30 L 801.90 641.10 L 803.80 637.70 L 806.50 635.10 L 808.20 634.20 L 811.90 633.50 L 815.60 634.20 L 817.20 635.10 L 820.00 637.70 L 821.80 641.10 L 822.50 645.30 Z" fill="none" group-id="3" node-id="219" stroke="#000000" stroke-linecap="butt" stroke-width="1" target-height="23.599976" target-width="21.200012" target-x="801.3" target-y="633.5"/><path d="M 1022.20 220.90 L 1020.90 256.70 L 991.40 236.00 L 1006.80 228.50 Z" fill="none" group-id="3" node-id="221" stroke="#000000" stroke-linecap="butt" stroke-width="1" target-height="35.80002" target-width="30.799988" target-x="991.4" target-y="220.9"/><path d="M 129.00 547.50 L 162.20 559.00 L 135.50 583.60 L 132.30 565.60 Z" fill="#ffc631" fill-rule="nonzero" group-id="3" node-id="223" stroke="none" target-height="36.099976" target-width="33.199997" target-x="129" target-y="547.5"/><path d="M 1066.90 737.20 L 1066.30 740.70 L 1065.60 742.20 L 1064.10 744.20 L 1062.20 745.80 L 1060.70 746.50 L 1057.40 747.10 L 1054.10 746.50 L 1052.70 745.80 L 1050.70 744.20 L 1049.30 742.20 L 1048.60 740.70 L 1048.00 737.20 L 1048.60 733.70 L 1049.30 732.10 L 1050.70 730.10 L 1052.70 728.50 L 1054.10 727.80 L 1057.40 727.20 L 1060.70 727.80 L 1062.20 728.50 L 1064.10 730.10 L 1065.60 732.10 L 1066.30 733.70 L 1066.90 737.20 Z" fill="#24abfc" fill-rule="nonzero" group-id="3" node-id="225" stroke="none" target-height="19.899963" target-width="18.900024" target-x="1048" target-y="727.2"/><path d="M 221.30 790.50 L 201.50 759.20 L 231.40 739.80 L 251.10 771.00 Z" fill="none" group-id="3" node-id="227" stroke="#000000" stroke-linecap="butt" stroke-width="1" target-height="50.700012" target-width="49.600006" target-x="201.5" target-y="739.8"/></g><g node-id="465"><path d="M 376.80 1055.80 L 336.60 1055.80 L 335.50 1055.60 L 333.90 1054.40 L 319.50 984.00 L 319.50 982.70 L 320.20 981.60 L 321.20 980.90 L 322.60 980.60 L 386.40 980.60 L 387.70 980.90 L 388.80 981.60 L 389.40 982.60 L 389.50 983.80 L 379.90 1053.30 L 379.50 1054.30 L 378.80 1055.10 L 376.80 1055.80 Z" fill="#ffffff" fill-rule="nonzero" group-id="4" node-id="231" stroke="#000000" stroke-linecap="butt" stroke-width="1" target-height="75.20007" target-width="70" target-x="319.5" target-y="980.6"/><path d="M 331.20 1007.80 L 337.20 1043.00 L 337.60 1044.00 L 338.40 1044.80 L 340.60 1045.60 L 372.10 1045.60 L 373.30 1045.40 L 375.00 1044.10 L 377.10 1035.90 L 381.00 1014.60 L 382.00 1004.50 L 382.00 1000.10 L 381.60 997.30 L 381.00 995.80 L 380.20 995.10 L 379.10 995.10 L 355.30 999.60 L 334.40 1002.70 L 333.20 1003.30 L 331.60 1005.20 L 331.20 1007.80 Z" fill="#c4e2fa" fill-rule="nonzero" group-id="4" node-id="233" stroke="none" target-height="50.5" target-width="50.799988" target-x="331.2" target-y="995.1"/><g node-id="481"><path d="M 337.80 961.90 L 337.50 958.80 L 337.80 952.70 L 338.90 948.20 L 340.60 943.70 L 345.00 935.20 L 355.00 919.20 L 357.10 915.00 L 358.80 910.70 L 359.80 907.10 L 360.30 903.60 L 360.30 900.20 L 359.90 896.80 L 359.10 893.50 L 357.80 890.40 L 356.10 887.40 L 354.00 884.40 L 356.10 884.70 L 357.10 885.20 L 358.00 886.10 L 362.80 894.90 L 365.10 901.30 L 365.80 904.60 L 365.90 907.90 L 365.50 911.20 L 364.50 914.50 L 362.70 918.10 L 355.50 928.20 L 350.60 936.00 L 346.40 944.20 L 344.70 948.90 L 343.50 953.50 L 342.90 958.20 L 342.70 962.90 L 343.20 967.70 L 344.10 972.60 L 342.40 971.40 L 341.00 969.90 L 339.80 968.10 L 338.60 965.10 L 337.80 961.90 Z" fill="#a4a5a5" fill-opacity="0.26" fill-rule="nonzero" group-id="4,20" node-id="237" stroke="none" target-height="88.19995" target-width="28.399994" target-x="337.5" target-y="884.4"/></g><g node-id="482"><path d="M 356.30 964.10 L 356.60 961.20 L 357.40 958.40 L 358.70 955.70 L 361.10 952.00 L 364.00 948.60 L 373.10 938.90 L 375.50 935.20 L 376.80 932.40 L 377.60 929.60 L 377.90 926.80 L 377.70 924.00 L 377.10 921.20 L 375.90 918.40 L 377.20 918.80 L 378.10 919.90 L 380.00 926.00 L 380.50 929.20 L 380.50 932.40 L 380.20 934.40 L 378.50 938.30 L 376.90 940.30 L 367.30 949.70 L 363.70 954.30 L 361.80 957.50 L 360.30 960.80 L 359.30 964.20 L 358.80 967.70 L 358.80 971.50 L 357.50 970.00 L 356.70 968.20 L 356.30 964.10 Z" fill="#a4a5a5" fill-opacity="0.26" fill-rule="nonzero" group-id="4,21" node-id="242" stroke="none" target-height="53.099976" target-width="24.200012" target-x="356.3" target-y="918.4"/></g><path d="M 332.10 1024.80 L 325.40 985.50 L 326.80 984.90 L 344.80 984.70" fill="none" group-id="4" node-id="245" stroke="#070707" stroke-linecap="round" stroke-width="1" target-height="40.100037" target-width="19.399994" target-x="325.4" target-y="984.7"/><path d="M 332.70 1028.40 L 333.40 1032.80" fill="none" group-id="4" node-id="247" stroke="#070707" stroke-linecap="round" stroke-width="1" target-height="4.4000244" target-width="0.6999817" target-x="332.7" target-y="1028.4"/></g><g node-id="466"><path d="M 874.30 887.80 L 947.00 1054.40 L 847.20 1055.40 L 791.80 922.80 L 784.90 905.50 Z" fill="#ffffff" fill-rule="nonzero" group-id="5" node-id="251" stroke="#000000" stroke-linecap="butt" stroke-width="1" target-height="167.60004" target-width="162.09998" target-x="784.9" target-y="887.8"/><path d="M 875.50 887.80 L 864.60 890.80 L 854.80 894.10 L 845.80 897.70 L 837.00 901.70 L 829.10 905.70 L 822.10 909.80 L 809.20 918.40 L 796.70 928.60 L 791.30 933.80 L 777.80 892.00 L 752.40 809.70 L 732.10 740.70 L 718.60 693.50 L 745.50 691.40 L 760.70 691.00 L 768.20 691.10 L 781.70 692.20 L 786.80 693.20 L 790.00 694.20 L 792.10 695.40 L 793.50 696.70 L 798.00 705.30 L 817.80 750.30 L 875.50 887.80 Z" fill="#4f44ff" fill-rule="nonzero" group-id="5" node-id="253" stroke="none" target-height="242.79999" target-width="156.90002" target-x="718.6" target-y="691"/><path d="M 613.10 703.30 L 718.60 693.50 L 751.10 755.10 L 780.10 811.20 L 807.20 865.40 L 821.90 896.90 L 824.80 903.80 L 826.90 909.80 L 827.50 912.70 L 826.80 917.60 L 823.20 928.60 L 815.70 946.20 L 800.70 978.00 L 779.30 1020.20 L 762.20 1052.70 L 504.00 1051.50 L 567.70 778.90 L 613.10 703.30 Z" fill="#4f44ff" fill-rule="nonzero" group-id="5" node-id="255" stroke="none" target-height="359.19995" target-width="323.5" target-x="504" target-y="693.5"/><path d="M 601.10 586.10 L 613.10 703.30 L 620.80 713.90 L 624.70 718.70 L 629.60 724.10 L 635.00 729.30 L 641.10 734.60 L 650.00 740.80 L 654.80 743.40 L 659.80 745.60 L 664.80 747.30 L 670.10 748.40 L 674.10 748.90 L 678.10 748.90 L 682.30 748.40 L 686.60 747.60 L 691.20 746.00 L 695.20 744.00 L 698.70 741.60 L 701.90 738.70 L 704.70 735.60 L 709.10 728.50 L 712.30 721.00 L 714.00 715.10 L 715.90 704.10 L 716.30 699.50 L 716.40 689.50 L 707.50 626.50 L 680.30 611.60 L 663.70 603.10 L 646.10 594.70 L 629.40 587.70 L 621.60 585.00 L 615.10 583.20 L 610.90 582.30 L 607.60 582.10 L 605.10 582.20 L 603.40 582.70 L 602.20 583.50 L 601.50 584.60 L 601.10 586.10 Z" fill="#ffffff" fill-rule="nonzero" group-id="5" node-id="257" stroke="#000000" stroke-linecap="butt" stroke-width="1" target-height="166.80005" target-width="115.30005" target-x="601.1" target-y="582.1"/><path d="M 603.10 585.70 L 610.20 595.00 L 618.70 604.20 L 623.90 609.20 L 634.40 617.70 L 644.10 623.90 L 649.20 626.60 L 654.70 629.10 L 660.40 631.10 L 666.30 632.80 L 672.40 633.90 L 678.90 634.60 L 683.70 634.50 L 688.40 633.90 L 692.90 632.80 L 697.30 631.20 L 701.50 629.10 L 705.60 626.70 L 709.60 623.80 L 713.60 620.50 L 718.40 615.70 L 723.00 610.50 L 727.40 604.70 L 731.40 598.60 L 735.00 592.40 L 741.40 579.20 L 744.10 572.60 L 748.30 559.40 L 750.90 547.40 L 751.70 541.50 L 752.00 536.50 L 751.80 532.10 L 751.20 527.70 L 750.10 522.60 L 748.20 516.70 L 743.40 504.70 L 736.80 491.40 L 728.70 477.90 L 719.70 464.90 L 709.70 452.70 L 699.40 442.30 L 693.90 437.70 L 688.60 433.80 L 683.40 430.80 L 679.30 428.80 L 675.40 427.50 L 671.60 426.60 L 668.00 426.30 L 663.00 426.50 L 657.60 427.30 L 651.60 428.80 L 639.70 433.20 L 633.30 436.10 L 620.90 443.00 L 614.70 446.90 L 605.70 453.20 L 597.30 459.90 L 591.90 464.50 L 582.80 473.60 L 578.70 478.40 L 572.70 486.90 L 571.00 490.30 L 569.00 496.00 L 567.90 516.70 L 567.80 526.00 L 568.00 534.90 L 568.50 540.70 L 570.50 550.80 L 573.10 557.40 L 574.80 560.10 L 576.80 562.40 L 585.80 571.10 L 603.10 585.70 Z" fill="#ffffff" fill-rule="nonzero" group-id="5" node-id="259" stroke="#000000" stroke-linecap="butt" stroke-width="1" target-height="208.29999" target-width="184.20001" target-x="567.8" target-y="426.3"/><path d="M 655.20 444.80 L 654.30 452.00 L 653.00 459.20 L 651.30 466.40 L 649.00 473.40 L 646.30 480.10 L 643.10 486.50 L 637.50 495.60 L 630.80 503.50 L 627.10 507.10 L 623.10 510.40 L 618.80 513.20 L 614.20 515.70 L 610.00 517.10 L 608.60 517.10 L 606.70 516.40 L 598.70 511.70 L 595.40 510.30 L 589.70 508.90 L 585.00 509.20 L 582.70 509.80 L 580.70 510.80 L 578.80 512.30 L 576.90 514.40 L 575.50 516.90 L 574.50 519.60 L 573.20 526.70 L 573.20 530.90 L 573.60 535.10 L 574.40 539.30 L 575.70 543.30 L 577.30 547.20 L 581.60 554.50 L 587.20 561.00 L 590.30 563.70 L 600.00 570.30 L 603.40 573.90 L 604.70 576.30 L 605.30 578.30 L 605.40 580.40 L 604.90 582.50 L 603.80 584.30 L 602.50 585.50 L 601.10 586.20 L 599.50 586.50 L 597.00 586.30 L 594.30 585.50 L 589.40 582.80 L 582.40 577.80 L 575.80 572.30 L 571.70 568.40 L 568.00 564.00 L 564.60 559.30 L 561.80 554.30 L 559.40 549.00 L 557.60 543.40 L 555.00 532.00 L 553.60 517.00 L 553.60 495.90 L 554.20 483.30 L 555.00 474.90 L 557.60 458.20 L 559.40 449.90 L 561.70 441.90 L 564.50 434.10 L 569.60 422.80 L 575.90 412.40 L 579.30 407.90 L 582.90 403.80 L 586.70 400.10 L 590.90 396.70 L 596.70 392.50 L 602.80 388.90 L 609.30 385.90 L 615.90 383.40 L 622.70 381.30 L 629.70 379.80 L 636.70 378.80 L 643.80 378.20 L 650.80 378.20 L 663.30 379.10 L 675.70 381.60 L 681.80 383.30 L 687.70 385.40 L 693.50 388.00 L 699.10 390.90 L 704.50 394.20 L 709.60 397.80 L 714.50 402.00 L 719.00 406.50 L 724.20 412.60 L 728.90 419.00 L 733.10 425.80 L 736.90 432.90 L 740.40 440.20 L 743.40 447.80 L 748.50 463.30 L 753.20 482.70 L 755.30 494.50 L 757.70 515.10 L 758.00 527.10 L 757.00 537.60 L 756.80 544.30 L 755.00 537.90 L 752.70 531.80 L 750.00 526.00 L 746.70 520.40 L 743.00 515.00 L 738.90 509.90 L 734.50 505.10 L 725.00 496.40 L 717.00 490.40 L 708.80 484.90 L 700.30 479.80 L 674.50 465.30 L 666.20 460.10 L 663.60 458.00 L 659.20 453.50 L 657.50 450.90 L 656.10 448.00 L 655.20 444.80 Z" fill="#020202" fill-rule="nonzero" group-id="5" node-id="261" stroke="none" target-height="208.29999" target-width="204.40002" target-x="553.6" target-y="378.2"/><g node-id="483"><path d="M 624.30 339.80 L 625.10 344.40 L 625.40 349.00 L 625.30 353.50 L 624.80 358.00 L 623.90 362.50 L 622.70 366.80 L 621.10 370.90 L 619.00 374.80 L 616.60 378.50 L 614.00 381.90 L 611.10 384.90 L 607.90 387.50 L 604.40 389.80 L 600.80 391.70 L 597.00 393.10 L 593.00 394.20 L 588.90 394.80 L 584.90 394.90 L 580.80 394.60 L 576.70 393.80 L 572.80 392.60 L 568.90 391.00 L 565.20 389.00 L 561.50 386.50 L 558.10 383.70 L 555.00 380.50 L 552.20 377.10 L 549.60 373.30 L 545.60 365.20 L 544.10 360.90 L 543.00 356.30 L 541.90 347.00 L 542.00 342.50 L 542.50 338.00 L 543.30 333.50 L 544.60 329.30 L 546.20 325.20 L 548.20 321.20 L 550.60 317.50 L 553.30 314.20 L 556.20 311.20 L 559.40 308.50 L 562.90 306.30 L 566.50 304.40 L 570.30 302.90 L 574.30 301.90 L 578.30 301.30 L 582.40 301.10 L 586.50 301.50 L 590.50 302.20 L 594.50 303.40 L 598.30 305.00 L 602.10 307.00 L 605.80 309.50 L 609.20 312.40 L 612.30 315.50 L 615.10 319.00 L 617.60 322.70 L 619.80 326.70 L 621.70 330.80 L 623.20 335.20 L 624.30 339.80 Z" fill="#020202" fill-rule="nonzero" group-id="5,22" node-id="265" stroke="none" target-height="93.79999" target-width="83.5" target-x="541.9" target-y="301.1"/></g><path d="M 603.10 389.50 L 611.10 387.70 L 615.00 386.20 L 622.40 382.20 L 628.90 376.90 L 631.80 373.80 L 635.20 369.40 L 638.10 364.60 L 640.60 359.50 L 643.90 350.00 L 645.50 341.50 L 645.70 337.20 L 645.40 332.90 L 644.60 328.70" fill="none" group-id="5" node-id="268" stroke="#000000" stroke-linecap="butt" stroke-width="1" target-height="60.799988" target-width="42.600037" target-x="603.1" target-y="328.7"/><path d="M 595.70 393.30 L 591.90 394.80 L 584.00 396.60 L 580.00 396.90 L 571.90 396.40 L 564.00 394.50 L 560.20 393.10 L 553.10 389.10 L 549.70 386.60 L 543.90 380.60 L 541.40 377.30 L 539.20 373.70 L 536.70 368.60 L 534.80 363.30 L 533.40 357.80 L 532.80 353.50 L 532.70 345.00 L 533.20 340.80" fill="none" group-id="5" node-id="270" stroke="#000000" stroke-linecap="butt" stroke-width="1" target-height="56.100006" target-width="63" target-x="532.7" target-y="340.8"/><path d="M 654.90 441.40 L 655.10 449.30 L 654.90 457.10 L 654.20 465.00 L 652.90 472.70 L 650.00 482.60 L 648.00 487.50 L 644.20 494.70 L 639.90 501.70 L 629.90 515.00 L 619.30 527.30" fill="none" group-id="5" node-id="272" stroke="#000000" stroke-linecap="butt" stroke-width="1" target-height="85.899994" target-width="35.799988" target-x="619.3" target-y="441.4"/><path d="M 583.00 530.80 L 583.70 535.20 L 584.90 538.20 L 587.30 542.30 L 591.50 546.40 L 594.30 548.10 L 597.90 549.80" fill="none" group-id="5" node-id="274" stroke="#000000" stroke-linecap="butt" stroke-width="1" target-height="19" target-width="14.900024" target-x="583" target-y="530.8"/><path d="M 776.80 797.30 L 827.50 912.70 L 826.20 921.50 L 825.20 925.20 L 823.60 929.20" fill="none" group-id="5" node-id="276" stroke="#ffffff" stroke-linecap="butt" stroke-width="1" target-height="131.90002" target-width="50.700012" target-x="776.8" target-y="797.3"/><g node-id="484"><path d="M 836.80 1037.90 L 836.00 1038.00 L 835.10 1037.50 L 833.90 1036.40 L 830.50 1030.70 L 826.90 1022.90 L 820.70 1006.20 L 808.90 991.10 L 795.50 975.70 L 789.90 970.30 L 788.10 969.10 L 786.10 968.30 L 785.50 968.60 L 785.20 969.40 L 785.60 974.20 L 786.60 978.50 L 789.60 988.60 L 793.50 1000.00 L 803.70 1026.70 L 803.30 1027.60 L 802.90 1027.90 L 792.30 1031.40 L 789.10 1032.10 L 786.60 1032.10 L 780.20 1030.70 L 777.10 1030.50 L 772.40 1032.50 L 767.10 1033.30 L 758.40 1033.00 L 752.40 1032.10 L 747.50 1033.50 L 730.70 1036.80 L 720.20 1032.60 L 713.30 1029.40 L 711.30 1027.70 L 710.70 1026.30 L 710.80 1024.40 L 728.60 1021.10 L 726.70 993.70 L 714.40 988.20 L 703.80 992.40 L 690.00 997.30 L 657.80 1007.00 L 620.10 1017.10 L 579.00 1027.10 L 536.80 1036.60 L 495.70 1045.30 L 458.20 1052.70 L 412.70 1060.90 L 393.40 1063.70 L 388.70 1064.00 L 387.50 1063.80 L 386.60 1063.00 L 386.10 1061.90 L 386.10 1060.60 L 408.20 981.30 L 424.30 920.00 L 428.40 917.80 L 435.00 915.10 L 451.40 909.90 L 471.30 905.10 L 481.90 903.20 L 492.40 901.80 L 506.10 900.70 L 518.50 900.90 L 524.00 901.50 L 528.70 902.50 L 532.20 903.70 L 535.10 905.10 L 537.40 906.60 L 539.30 908.40 L 531.30 943.80 L 708.80 912.30 L 746.30 906.00 L 753.80 904.90 L 755.20 905.00 L 759.60 906.70 L 763.30 908.90 L 772.30 915.30 L 786.30 927.00 L 802.30 941.80 L 829.10 988.10 L 836.40 1001.90 L 838.10 1012.50 L 839.10 1024.60 L 838.90 1031.90 L 838.50 1034.60 L 838.00 1036.30 L 836.80 1037.90 Z" fill="#ffffff" fill-rule="nonzero" group-id="5,23" node-id="280" stroke="#000000" stroke-linecap="butt" stroke-width="1" target-height="163.29999" target-width="452.99997" target-x="386.1" target-y="900.7"/><path d="M 750.60 1032.10 L 750.90 994.30 L 744.90 983.70" fill="#ffffff" fill-rule="nonzero" group-id="5,23" node-id="282" stroke="#000000" stroke-linecap="butt" stroke-width="1" target-height="48.399963" target-width="6" target-x="744.9" target-y="983.7"/><path d="M 776.70 1030.70 L 774.70 993.20 L 769.80 977.40" fill="#ffffff" fill-rule="nonzero" group-id="5,23" node-id="284" stroke="#000000" stroke-linecap="butt" stroke-width="1" target-height="53.299927" target-width="6.9000244" target-x="769.8" target-y="977.4"/><path d="M 728.40 1021.20 L 728.90 1024.30" fill="#ffffff" fill-rule="nonzero" group-id="5,23" node-id="286" stroke="#000000" stroke-linecap="butt" stroke-width="1" target-height="3.1000366" target-width="0.5" target-x="728.4" target-y="1021.2"/></g><path d="M 824.30 896.60 L 832.80 891.80 L 841.30 887.50 L 850.80 883.50 L 855.70 882.00 L 860.10 881.00 L 863.00 880.60 L 867.70 881.00" fill="none" group-id="5" node-id="289" stroke="#ffffff" stroke-linecap="butt" stroke-width="1" target-height="16" target-width="43.400024" target-x="824.3" target-y="880.6"/><path d="M 612.40 703.90 L 570.90 828.30 L 546.30 910.50 L 533.20 908.20 L 521.10 906.60 L 510.10 905.70 L 498.90 905.30 L 488.80 905.40 L 479.70 905.90 L 462.40 908.10 L 447.90 911.30 L 436.30 915.00 L 428.70 918.10 L 423.20 920.80 L 450.50 838.40 L 475.80 765.30 L 486.10 737.60 L 490.60 726.40 L 493.90 718.80 L 497.70 711.90 L 498.50 711.00 L 500.50 710.20 L 507.70 708.30 L 514.30 707.30 L 531.40 705.70 L 561.10 704.30 L 580.30 704.00 L 612.40 703.90 Z" fill="#4f44ff" fill-rule="nonzero" group-id="5" node-id="291" stroke="none" target-height="216.89996" target-width="189.20001" target-x="423.2" target-y="703.9"/><path d="M 539.40 909.50 L 554.40 854.90 L 558.40 841.90 L 561.60 832.30 L 563.00 829.10 L 563.70 828.20" fill="none" group-id="5" node-id="293" stroke="#ffffff" stroke-linecap="butt" stroke-width="1" target-height="81.29999" target-width="24.299988" target-x="539.4" target-y="828.2"/><path d="M 431.30 909.20 L 444.00 905.20 L 458.10 901.70 L 475.60 898.70 L 485.20 897.80 L 495.40 897.30 L 502.30 897.30 L 516.30 898.50 L 523.30 899.60 L 530.20 901.20 L 537.00 903.30" fill="none" group-id="5" node-id="295" stroke="#ffffff" stroke-linecap="butt" stroke-width="1" target-height="11.900024" target-width="105.70001" target-x="431.3" target-y="897.3"/><path d="M 604.70 710.50 L 610.90 721.20 L 618.20 730.90 L 623.60 736.80 L 629.30 742.10 L 635.20 746.80 L 641.50 751.00 L 647.90 754.50 L 654.40 757.40 L 659.40 759.10 L 669.30 761.30 L 674.20 761.80 L 679.20 761.90 L 684.00 761.50 L 688.70 760.60 L 693.30 759.30 L 697.30 757.70 L 700.90 755.80 L 704.20 753.60 L 707.20 751.10 L 710.80 747.30 L 714.00 743.10 L 716.80 738.40 L 719.20 733.40 L 721.30 728.00 L 724.50 716.20 L 726.70 703.40" fill="none" group-id="5" node-id="297" stroke="#ffffff" stroke-linecap="butt" stroke-width="1" target-height="58.5" target-width="122" target-x="604.7" target-y="703.4"/><path d="M 533.60 943.30 L 524.50 945.20 L 520.30 946.60 L 512.00 950.30 L 505.00 954.80 L 501.70 957.50 L 495.10 964.40" fill="none" group-id="5" node-id="299" stroke="#000000" stroke-linecap="butt" stroke-width="1" target-height="21.100037" target-width="38.49997" target-x="495.1" target-y="943.3"/></g><g node-id="467"><path d="M 1225.10 825.40 L 1206.10 1034.20 L 1205.40 1037.90 L 1204.30 1041.20 L 1202.70 1044.30 L 1200.60 1047.10 L 1198.20 1049.40 L 1195.40 1051.40 L 1192.40 1052.80 L 1189.20 1053.70 L 1185.70 1054.00 L 921.40 1053.90 L 918.40 1053.70 L 915.60 1053.00 L 912.90 1052.00 L 908.20 1048.70 L 904.50 1044.30 L 903.10 1041.70 L 901.20 1036.00 L 900.90 1032.90 L 901.00 1029.60 L 920.50 824.70 L 921.20 821.10 L 922.30 817.70 L 923.90 814.70 L 925.90 811.90 L 928.30 809.60 L 931.00 807.70 L 934.00 806.20 L 937.20 805.30 L 940.60 805.00 L 1204.30 801.10 L 1207.40 801.30 L 1210.20 801.90 L 1212.90 803.00 L 1217.70 806.20 L 1219.70 808.30 L 1222.90 813.20 L 1224.00 816.00 L 1224.80 819.00 L 1225.10 822.10 L 1225.10 825.40 Z" fill="#eaf4fe" fill-rule="nonzero" group-id="6" node-id="303" stroke="#0a0a0a" stroke-linecap="butt" stroke-width="1" target-height="252.90002" target-width="324.19995" target-x="900.9" target-y="801.1"/><path d="M 1192.40 1076.10 L 706.00 1073.40 L 702.40 1072.70 L 699.30 1070.90 L 697.10 1068.20 L 696.30 1066.60 L 695.70 1063.00 L 696.30 1059.00 L 698.20 1056.00 L 700.90 1053.70 L 704.20 1052.50 L 1192.50 1055.00 L 1196.20 1055.70 L 1197.80 1056.40 L 1200.50 1058.70 L 1202.20 1061.80 L 1202.90 1065.70 L 1202.20 1069.40 L 1201.40 1071.00 L 1199.10 1073.60 L 1196.10 1075.40 L 1192.40 1076.10 Z" fill="#c7e1f8" fill-rule="nonzero" group-id="6" node-id="305" stroke="#020202" stroke-linecap="butt" stroke-width="1" target-height="23.599976" target-width="507.2" target-x="695.7" target-y="1052.5"/><path d="M 884.20 1074.00 L 704.90 1072.80 L 701.50 1071.50 L 698.90 1069.30 L 697.10 1066.20 L 696.40 1062.30 L 697.10 1058.70 L 698.90 1055.60 L 701.60 1053.40 L 705.00 1052.10 L 886.20 1053.10 L 889.50 1054.40 L 892.20 1056.70 L 894.00 1059.70 L 894.60 1063.60 L 894.00 1067.30 L 893.20 1068.90 L 890.90 1071.50 L 887.80 1073.30 L 884.20 1074.00 Z" fill="#ffffff" fill-rule="nonzero" group-id="6" node-id="307" stroke="#000000" stroke-linecap="butt" stroke-width="1" target-height="21.900024" target-width="198.19995" target-x="696.4" target-y="1052.1"/><g node-id="485"><path d="M 1103.10 886.50 L 1103.30 887.60 L 1102.90 889.10 L 1101.60 891.10 L 1096.80 895.10 L 1092.60 897.40 L 1088.40 898.80 L 1084.20 899.20 L 1082.70 898.80 L 1081.90 898.00 L 1081.70 896.90 L 1082.10 895.40 L 1084.80 892.10 L 1088.30 889.40 L 1092.50 887.10 L 1096.60 885.70 L 1100.90 885.30 L 1102.30 885.70 L 1103.10 886.50 Z" fill="#fcffff" fill-rule="nonzero" group-id="6,24" node-id="311" stroke="none" target-height="13.900024" target-width="21.600098" target-x="1081.7" target-y="885.3"/></g><path d="M 728.50 1063.00 L 797.30 1063.40" fill="none" group-id="6" node-id="314" stroke="#92bbf4" stroke-linecap="butt" stroke-width="1" target-height="0.4000244" target-width="68.79999" target-x="728.5" target-y="1063"/><path d="M 831.60 1062.10 L 847.90 1062.20" fill="#ffffff" fill-rule="nonzero" group-id="6" node-id="316" stroke="#0a0a0a" stroke-linecap="butt" stroke-width="1" target-height="0.099975586" target-width="16.300049" target-x="831.6" target-y="1062.1"/><path d="M 858.40 1062.70 L 873.60 1062.80" fill="#ffffff" fill-rule="nonzero" group-id="6" node-id="318" stroke="#0a0a0a" stroke-linecap="butt" stroke-width="1" target-height="0.100097656" target-width="15.199951" target-x="858.4" target-y="1062.7"/><g node-id="486"><path d="M 1185.70 1054.00 L 921.40 1053.90 L 918.40 1053.70 L 915.60 1053.00 L 912.90 1052.00 L 908.20 1048.70 L 906.20 1046.60 L 903.10 1041.70 L 902.00 1038.90 L 901.20 1036.00 L 900.90 1032.90 L 901.00 1029.60 L 920.50 824.70 L 921.20 821.10 L 922.30 817.70 L 923.90 814.70 L 925.90 811.90 L 928.30 809.60 L 931.00 807.70 L 934.00 806.20 L 937.20 805.30 L 940.60 805.00 L 996.50 804.10 L 1005.10 819.40 L 1020.20 848.20 L 1030.50 869.90 L 1035.30 881.00 L 1043.70 902.80 L 1047.10 913.50 L 1051.50 931.00 L 1053.90 938.90 L 1060.20 955.60 L 1064.00 964.00 L 1068.30 972.50 L 1072.90 980.80 L 1078.10 989.00 L 1083.70 997.00 L 1089.80 1004.80 L 1096.30 1012.20 L 1103.30 1019.20 L 1108.80 1024.20 L 1120.60 1033.20 L 1126.80 1037.30 L 1133.30 1040.90 L 1140.00 1044.20 L 1147.00 1047.00 L 1154.30 1049.50 L 1161.70 1051.40 L 1169.40 1052.80 L 1177.40 1053.70 L 1185.70 1054.00 Z" fill="#c6e2fa" fill-opacity="0.68" fill-rule="nonzero" group-id="6,25" node-id="322" stroke="none" target-height="249.90002" target-width="284.79993" target-x="900.9" target-y="804.1"/></g><path d="M 920.70 1025.60 L 941.20 826.30 L 941.60 824.50 L 942.40 822.90 L 944.80 820.50 L 946.30 819.90 L 948.10 819.60 L 1027.80 818.50" fill="none" group-id="6" node-id="325" stroke="#0a0a0a" stroke-linecap="butt" stroke-width="1" target-height="207.09998" target-width="107.10004" target-x="920.7" target-y="818.5"/><g node-id="487"><path d="M 1092.40 927.90 L 1092.20 931.60 L 1091.60 934.90 L 1090.70 938.20 L 1089.30 941.20 L 1085.70 946.50 L 1083.40 948.80 L 1080.90 950.70 L 1078.20 952.20 L 1075.30 953.40 L 1072.20 954.10 L 1069.00 954.40 L 1065.70 954.20 L 1062.70 953.50 L 1059.70 952.40 L 1057.00 951.00 L 1054.40 949.10 L 1052.10 946.90 L 1050.10 944.50 L 1048.40 941.70 L 1046.90 938.70 L 1045.90 935.50 L 1045.20 932.10 L 1044.90 928.50 L 1045.10 924.90 L 1045.70 921.50 L 1046.70 918.30 L 1049.70 912.40 L 1053.90 907.70 L 1056.40 905.80 L 1059.20 904.20 L 1062.10 903.10 L 1065.10 902.30 L 1068.40 902.10 L 1071.60 902.30 L 1074.70 902.90 L 1077.60 904.00 L 1080.40 905.50 L 1082.90 907.30 L 1085.20 909.50 L 1087.30 912.00 L 1090.40 917.80 L 1091.50 921.00 L 1092.10 924.30 L 1092.40 927.90 Z" fill="#fcffff" fill-rule="nonzero" group-id="6,26" node-id="329" stroke="none" target-height="52.30005" target-width="47.5" target-x="1044.9" target-y="902.1"/></g></g><g node-id="468"><path d="M 389.00 649.00 L 294.20 649.00 L 292.00 648.70 L 290.10 647.90 L 288.50 646.60 L 287.30 645.00 L 286.50 643.10 L 286.20 640.90 L 286.20 584.70 L 286.50 582.50 L 287.30 580.60 L 288.50 579.00 L 290.10 577.70 L 292.00 576.90 L 294.20 576.60 L 389.00 576.60 L 391.10 576.90 L 393.00 577.70 L 394.70 579.00 L 395.90 580.60 L 396.70 582.50 L 397.00 584.70 L 397.00 640.90 L 396.70 643.10 L 395.90 645.00 L 394.70 646.60 L 393.00 647.90 L 391.10 648.70 L 389.00 649.00 Z" fill="#ffffff" fill-rule="nonzero" group-id="7" node-id="334" stroke="#020202" stroke-linecap="butt" stroke-width="1" target-height="72.400024" target-width="110.79999" target-x="286.2" target-y="576.6"/><path d="M 361.60 689.50 L 263.90 689.50 L 260.60 688.90 L 259.10 688.20 L 257.20 686.70 L 255.70 684.80 L 255.00 683.30 L 254.40 680.00 L 254.40 616.50 L 255.00 613.20 L 255.70 611.70 L 257.20 609.80 L 259.10 608.30 L 260.60 607.60 L 263.90 607.00 L 361.60 607.00 L 365.00 607.60 L 366.40 608.30 L 368.40 609.80 L 369.90 611.70 L 370.60 613.20 L 371.20 616.50 L 371.20 680.00 L 370.60 683.30 L 369.80 684.80 L 368.40 686.70 L 366.40 688.20 L 365.00 688.90 L 361.60 689.50 Z" fill="#05cdcd" fill-rule="nonzero" group-id="7" node-id="336" stroke="none" target-height="82.5" target-width="116.80002" target-x="254.4" target-y="607"/><path d="M 267.90 619.70 L 267.90 674.60 L 353.00 674.60" fill="none" group-id="7" node-id="338" stroke="#ffffff" stroke-linecap="butt" stroke-width="1" target-height="54.899963" target-width="85.100006" target-x="267.9" target-y="619.7"/><path d="M 275.90 644.50 L 282.50 644.50 L 282.50 674.10 L 275.90 674.10 Z" fill="#ffffff" fill-rule="nonzero" group-id="7" node-id="340" stroke="#ffffff" stroke-linecap="butt" stroke-width="1" target-height="29.599976" target-width="6.600006" target-x="275.9" target-y="644.5"/><path d="M 291.10 636.10 L 298.40 636.10 L 298.40 674.10 L 291.10 674.10 Z" fill="#ffffff" fill-rule="nonzero" group-id="7" node-id="342" stroke="#ffffff" stroke-linecap="butt" stroke-width="1" target-height="38" target-width="7.299988" target-x="291.1" target-y="636.1"/><path d="M 307.40 628.90 L 315.60 628.90 L 315.60 674.10 L 307.40 674.10 Z" fill="#ffffff" fill-rule="nonzero" group-id="7" node-id="344" stroke="#ffffff" stroke-linecap="butt" stroke-width="1" target-height="45.19995" target-width="8.200012" target-x="307.4" target-y="628.9"/><path d="M 323.30 643.70 L 331.50 643.70 L 331.50 674.10 L 323.30 674.10 Z" fill="#ffffff" fill-rule="nonzero" group-id="7" node-id="346" stroke="#ffffff" stroke-linecap="butt" stroke-width="1" target-height="30.399963" target-width="8.200012" target-x="323.3" target-y="643.7"/></g><g node-id="469"><path d="M 870.00 241.90 L 801.90 258.60 L 800.80 257.90 L 800.50 257.30 L 791.80 220.50 L 791.70 219.80 L 792.40 218.70 L 861.10 201.80 L 862.20 202.40 L 862.50 203.10 L 871.20 239.80 L 871.00 241.10 L 870.00 241.90 Z" fill="#ff6666" fill-rule="nonzero" group-id="8" node-id="350" stroke="none" target-height="56.800003" target-width="79.5" target-x="791.7" target-y="201.8"/><path d="M 792.50 219.60 L 828.50 227.00 L 860.30 201.70" fill="none" group-id="8" node-id="352" stroke="#ffffff" stroke-linecap="butt" stroke-width="1" target-height="25.300003" target-width="67.79999" target-x="792.5" target-y="201.7"/></g><g node-id="470"><path d="M 1280.80 405.40 L 1359.80 405.40 L 1359.80 455.30 L 1280.80 455.30 Z" fill="none" group-id="9" node-id="356" stroke="#b1b0b5" stroke-linecap="butt" stroke-width="1" target-height="49.899994" target-width="79" target-x="1280.8" target-y="405.4"/><path d="M 1280.80 455.30 L 1243.70 455.30" fill="none" group-id="9" node-id="358" stroke="#b1b0b5" stroke-linecap="butt" stroke-width="1" target-height="0" target-width="37.100098" target-x="1243.7" target-y="455.3"/><path d="M 1359.80 455.30 L 1408.90 456.70" fill="none" group-id="9" node-id="360" stroke="#b1b0b5" stroke-linecap="butt" stroke-width="1" target-height="1.4000244" target-width="49.099976" target-x="1359.8" target-y="455.3"/><path d="M 1290.40 458.10 L 1290.40 493.80" fill="none" group-id="9" node-id="362" stroke="#b1b0b5" stroke-linecap="butt" stroke-width="1" target-height="35.69998" target-width="0" target-x="1290.4" target-y="458.1"/><path d="M 1265.30 498.00 L 1347.90 498.00" fill="none" group-id="9" node-id="364" stroke="#b1b0b5" stroke-linecap="butt" stroke-width="1" target-height="0" target-width="82.599976" target-x="1265.3" target-y="498"/><path d="M 1374.20 462.40 L 1374.20 503.70" fill="none" group-id="9" node-id="366" stroke="#b1b0b5" stroke-linecap="butt" stroke-width="1" target-height="41.30002" target-width="0" target-x="1374.2" target-y="462.4"/></g><g node-id="471"><path d="M 1335.60 715.90 L 1219.10 715.90 L 1215.20 715.70 L 1211.50 714.90 L 1208.00 713.70 L 1204.70 712.00 L 1201.70 710.00 L 1198.90 707.60 L 1196.50 704.80 L 1194.40 701.80 L 1192.80 698.50 L 1191.60 695.00 L 1190.80 691.30 L 1190.50 687.30 L 1190.80 682.90 L 1191.60 679.20 L 1192.80 675.70 L 1194.40 672.40 L 1196.50 669.40 L 1198.90 666.60 L 1201.70 664.20 L 1204.70 662.20 L 1208.00 660.50 L 1211.50 659.30 L 1215.20 658.50 L 1219.10 658.30 L 1335.60 658.30 L 1339.50 658.50 L 1343.20 659.30 L 1346.70 660.50 L 1350.00 662.20 L 1353.00 664.20 L 1355.80 666.60 L 1358.20 669.40 L 1360.30 672.40 L 1361.90 675.70 L 1363.10 679.20 L 1363.90 682.90 L 1364.20 686.90 L 1363.90 691.30 L 1363.10 695.00 L 1361.90 698.50 L 1360.30 701.80 L 1358.20 704.80 L 1355.80 707.60 L 1353.00 710.00 L 1350.00 712.00 L 1346.70 713.70 L 1343.20 714.90 L 1339.50 715.70 L 1335.60 715.90 Z" fill="#ffc53b" fill-rule="nonzero" group-id="10" node-id="370" stroke="none" target-height="57.600037" target-width="173.69995" target-x="1190.5" target-y="658.3"/><path d="M 1263.20 739.80 L 1241.10 713.80 L 1264.50 693.20 L 1286.60 719.20 Z" fill="none" group-id="10" node-id="372" stroke="#000000" stroke-linecap="butt" stroke-width="1" target-height="46.599976" target-width="45.5" target-x="1241.1" target-y="693.2"/></g><g node-id="472"><path d="M 897.20 497.30 L 835.20 497.30 L 833.80 497.00 L 832.80 496.30 L 832.10 495.20 L 831.80 493.90 L 831.80 445.20 L 832.10 443.90 L 832.80 442.90 L 833.80 442.20 L 835.20 441.90 L 897.20 441.90 L 898.50 442.20 L 899.60 442.90 L 900.30 443.90 L 900.60 445.20 L 900.60 493.90 L 900.30 495.20 L 899.60 496.30 L 898.50 497.00 L 897.20 497.30 Z" fill="#6786e3" fill-rule="nonzero" group-id="11" node-id="376" stroke="none" target-height="55.399994" target-width="68.79999" target-x="831.8" target-y="441.9"/><path d="M 899.70 492.70 L 837.60 492.70 L 836.30 492.50 L 835.20 491.80 L 834.50 490.70 L 834.30 489.40 L 834.30 440.70 L 834.50 439.40 L 835.20 438.40 L 836.30 437.70 L 837.60 437.40 L 899.70 437.40 L 901.00 437.70 L 902.00 438.40 L 902.80 439.40 L 903.00 440.70 L 903.00 489.40 L 902.80 490.70 L 902.00 491.80 L 901.00 492.50 L 899.70 492.70 Z" fill="none" group-id="11" node-id="378" stroke="#000000" stroke-linecap="butt" stroke-width="1" target-height="55.30002" target-width="68.70001" target-x="834.3" target-y="437.4"/><path d="M 912.20 443.00 L 1100.10 443.00 L 1100.10 460.70 L 912.20 460.70 Z" fill="#05cdcd" fill-rule="nonzero" group-id="11" node-id="380" stroke="#020202" stroke-linecap="butt" stroke-width="1" target-height="17.700012" target-width="187.89996" target-x="912.2" target-y="443"/><path d="M 914.70 475.90 L 1015.50 475.90 L 1015.50 488.60 L 914.70 488.60 Z" fill="none" group-id="11" node-id="382" stroke="#020202" stroke-linecap="butt" stroke-width="1" target-height="12.700012" target-width="100.79999" target-x="914.7" target-y="475.9"/><path d="M 836.30 521.50 L 953.30 521.50" fill="none" group-id="11" node-id="384" stroke="#020202" stroke-linecap="butt" stroke-width="1" target-height="0" target-width="117" target-x="836.3" target-y="521.5"/><path d="M 836.30 540.50 L 927.20 540.50" fill="none" group-id="11" node-id="386" stroke="#020202" stroke-linecap="butt" stroke-width="1" target-height="0" target-width="90.900024" target-x="836.3" target-y="540.5"/><path d="M 836.30 559.50 L 896.10 559.50" fill="none" group-id="11" node-id="388" stroke="#020202" stroke-linecap="butt" stroke-width="1" target-height="0" target-width="59.799988" target-x="836.3" target-y="559.5"/></g><g node-id="473"><g node-id="488"><path d="M 1189.00 525.80 L 1189.60 611.40 L 1189.20 612.50 L 1188.20 613.00 L 1167.30 614.90 L 1143.90 615.90 L 1129.10 615.40 L 1123.20 614.60 L 1122.80 614.30 L 1122.80 613.80 L 1131.30 596.90 L 1139.00 582.90 L 1148.10 567.50 L 1158.30 552.30 L 1163.60 545.30 L 1168.80 539.20 L 1176.00 532.30 L 1179.20 529.80 L 1182.80 527.70 L 1186.00 526.40 L 1189.00 525.80 Z" fill="#b4b3b8" fill-opacity="0.68" fill-rule="nonzero" group-id="12,27" node-id="394" stroke="none" target-height="90.10004" target-width="66.79993" target-x="1122.8" target-y="525.8"/></g><path d="M 1121.40 525.80 L 1189.00 525.80 L 1189.20 539.10 L 1188.80 552.70 L 1187.50 568.20 L 1186.40 576.20 L 1183.60 588.70 L 1180.50 597.20 L 1178.40 601.00 L 1176.20 604.00 L 1173.80 606.50 L 1152.60 608.90 L 1129.40 610.70 L 1120.10 610.80 L 1116.50 610.50 L 1114.70 609.90 L 1119.00 583.30 L 1121.80 567.80 L 1121.90 556.50 L 1121.00 530.40 L 1121.40 525.80 Z" fill="#ffffff" fill-rule="nonzero" group-id="12" node-id="397" stroke="#000000" stroke-linecap="butt" stroke-width="1" target-height="85" target-width="74.5" target-x="1114.7" target-y="525.8"/><path d="M 1157.90 542.20 L 1157.70 543.40 L 1156.60 545.50 L 1155.60 546.20 L 1153.40 546.80 L 1151.20 546.20 L 1150.30 545.50 L 1149.20 543.40 L 1149.00 542.20 L 1149.20 540.90 L 1150.30 538.90 L 1151.20 538.10 L 1153.40 537.50 L 1155.60 538.10 L 1156.60 538.90 L 1157.70 540.90 L 1157.90 542.20 Z" fill="#ffffff" fill-rule="nonzero" group-id="12" node-id="399" stroke="#000000" stroke-linecap="butt" stroke-width="1" target-height="9.299988" target-width="8.900024" target-x="1149" target-y="537.5"/><path d="M 1132.00 563.50 L 1166.40 563.50" fill="#ffffff" fill-rule="nonzero" group-id="12" node-id="401" stroke="#000000" stroke-linecap="butt" stroke-width="1" target-height="0" target-width="34.400024" target-x="1132" target-y="563.5"/><path d="M 1146.70 579.20 L 1166.10 579.20" fill="#ffffff" fill-rule="nonzero" group-id="12" node-id="403" stroke="#000000" stroke-linecap="butt" stroke-width="1" target-height="0" target-width="19.400024" target-x="1146.7" target-y="579.2"/><path d="M 1130.00 591.80 L 1152.60 592.20" fill="#ffffff" fill-rule="nonzero" group-id="12" node-id="405" stroke="#000000" stroke-linecap="butt" stroke-width="1" target-height="0.4000244" target-width="22.599976" target-x="1130" target-y="591.8"/></g><g node-id="474"><path d="M 1391.30 1073.30 L 1390.20 1074.00 L 1388.30 1074.60 L 1380.40 1075.80 L 1356.30 1077.50 L 1339.80 1078.00 L 1324.50 1077.80 L 1312.70 1077.10 L 1310.10 1076.70 L 1307.80 1075.90 L 1307.90 1075.10 L 1309.20 1074.30 L 1312.90 1073.20 L 1320.70 1071.40 L 1330.80 1070.20 L 1338.70 1070.00 L 1364.10 1069.60 L 1371.50 1069.80 L 1384.70 1071.30 L 1389.30 1072.20 L 1390.90 1072.80 L 1391.30 1073.30 Z" fill="#cccdce" fill-rule="nonzero" group-id="13" node-id="409" stroke="none" target-height="8.400024" target-width="83.5" target-x="1307.8" target-y="1069.6"/><path d="M 1399.80 980.80 L 1392.10 1070.70 L 1391.30 1072.40 L 1389.50 1073.00 L 1319.40 1073.00 L 1317.70 1072.40 L 1316.90 1070.90 L 1303.10 981.00 L 1303.10 979.90 L 1303.60 978.90 L 1304.50 978.30 L 1305.60 978.00 L 1397.20 978.00 L 1398.30 978.30 L 1399.10 978.90 L 1399.60 979.80 L 1399.80 980.80 Z" fill="#05cdcd" fill-rule="nonzero" group-id="13" node-id="411" stroke="none" target-height="95" target-width="96.70007" target-x="1303.1" target-y="978"/><path d="M 1351.30 978.00 L 1349.70 965.30 L 1346.40 944.70 L 1339.00 912.10 L 1335.20 891.80 L 1333.90 882.40 L 1332.40 866.90 L 1332.10 865.70 L 1331.00 864.00 L 1329.70 862.90 L 1328.10 862.20 L 1291.20 851.30" fill="none" group-id="13" node-id="413" stroke="#000000" stroke-linecap="butt" stroke-width="1" target-height="126.70001" target-width="60.100098" target-x="1291.2" target-y="851.3"/><path d="M 1333.00 977.80 L 1331.00 958.90 L 1327.80 938.40 L 1325.10 925.50 L 1322.20 913.80 L 1318.90 902.00 L 1318.10 900.70 L 1316.00 899.00 L 1298.10 889.80" fill="none" group-id="13" node-id="415" stroke="#000000" stroke-linecap="butt" stroke-width="1" target-height="88" target-width="34.900024" target-x="1298.1" target-y="889.8"/><path d="M 1366.30 978.40 L 1368.80 965.80 L 1371.60 945.50 L 1372.30 938.00 L 1373.90 899.70 L 1375.60 884.20 L 1378.90 865.70 L 1382.60 860.90 L 1386.10 857.80 L 1389.50 855.30 L 1396.30 852.00 L 1402.00 850.20" fill="none" group-id="13" node-id="417" stroke="#000000" stroke-linecap="butt" stroke-width="1" target-height="128.20001" target-width="35.69995" target-x="1366.3" target-y="850.2"/><path d="M 1317.70 900.70 L 1318.50 896.00 L 1318.70 891.30 L 1318.40 886.60 L 1317.60 881.90 L 1316.20 877.40 L 1314.30 873.00" fill="none" group-id="13" node-id="419" stroke="#000000" stroke-linecap="butt" stroke-width="1" target-height="27.700012" target-width="4.3999023" target-x="1314.3" target-y="873"/><path d="M 1324.20 924.40 L 1322.60 925.20 L 1320.80 925.60 L 1316.30 926.00 L 1311.80 925.90 L 1307.40 925.10 L 1303.00 923.80 L 1299.00 922.00 L 1295.30 919.70" fill="none" group-id="13" node-id="421" stroke="#000000" stroke-linecap="butt" stroke-width="1" target-height="6.299988" target-width="28.899902" target-x="1295.3" target-y="919.7"/><path d="M 1326.50 933.30 L 1330.00 931.60 L 1331.40 930.30 L 1333.50 927.10 L 1334.70 922.50 L 1334.90 919.70 L 1334.50 914.10" fill="none" group-id="13" node-id="423" stroke="#000000" stroke-linecap="butt" stroke-width="1" target-height="19.200012" target-width="8.400024" target-x="1326.5" target-y="914.1"/><path d="M 1309.40 856.60 L 1310.30 852.00 L 1310.20 849.70 L 1309.00 845.10 L 1306.70 841.00 L 1303.20 837.70" fill="none" group-id="13" node-id="425" stroke="#000000" stroke-linecap="butt" stroke-width="1" target-height="18.899963" target-width="7.1000977" target-x="1303.2" target-y="837.7"/><path d="M 1322.10 860.40 L 1320.10 862.70 L 1317.70 864.70 L 1315.00 866.40 L 1309.00 868.80 L 1302.60 869.80 L 1299.40 869.70 L 1296.20 869.10" fill="none" group-id="13" node-id="427" stroke="#000000" stroke-linecap="butt" stroke-width="1" target-height="9.399963" target-width="25.900024" target-x="1296.2" target-y="860.4"/><path d="M 1333.80 879.80 L 1338.40 875.60 L 1341.90 870.60 L 1344.30 865.00 L 1345.00 862.10 L 1345.50 856.20" fill="none" group-id="13" node-id="429" stroke="#000000" stroke-linecap="butt" stroke-width="1" target-height="23.599976" target-width="11.699951" target-x="1333.8" target-y="856.2"/><path d="M 1337.10 901.80 L 1334.00 901.80 L 1331.00 901.20 L 1328.20 900.10 L 1325.70 898.50 L 1323.60 896.40 L 1321.90 894.10" fill="none" group-id="13" node-id="431" stroke="#000000" stroke-linecap="butt" stroke-width="1" target-height="7.700012" target-width="15.199951" target-x="1321.9" target-y="894.1"/><path d="M 1344.50 934.60 L 1347.80 932.70 L 1350.80 930.50 L 1353.50 927.90 L 1355.80 925.10 L 1357.80 922.00 L 1359.30 918.70 L 1360.40 915.20 L 1361.00 911.70 L 1361.20 908.10" fill="none" group-id="13" node-id="433" stroke="#000000" stroke-linecap="butt" stroke-width="1" target-height="26.5" target-width="16.699951" target-x="1344.5" target-y="908.1"/><path d="M 1340.10 916.90 L 1343.20 915.00 L 1345.90 912.80 L 1348.30 910.30 L 1350.40 907.50 L 1352.10 904.50 L 1353.40 901.30 L 1354.20 898.00 L 1354.60 894.70 L 1354.60 891.30" fill="none" group-id="13" node-id="435" stroke="#000000" stroke-linecap="butt" stroke-width="1" target-height="25.600037" target-width="14.5" target-x="1340.1" target-y="891.3"/><path d="M 1372.90 926.50 L 1375.60 926.20 L 1378.10 925.50 L 1380.50 924.50 L 1383.90 922.40 L 1386.80 919.80 L 1389.30 916.90 L 1391.40 913.80 L 1395.20 907.20" fill="none" group-id="13" node-id="437" stroke="#000000" stroke-linecap="butt" stroke-width="1" target-height="19.299988" target-width="22.299927" target-x="1372.9" target-y="907.2"/><path d="M 1373.80 902.80 L 1368.60 899.00 L 1364.40 894.30 L 1361.10 889.00 L 1359.90 886.10 L 1358.40 880.20" fill="none" group-id="13" node-id="439" stroke="#000000" stroke-linecap="butt" stroke-width="1" target-height="22.599976" target-width="15.400024" target-x="1358.4" target-y="880.2"/><path d="M 1376.50 884.10 L 1381.90 882.70 L 1387.00 880.70 L 1391.80 878.20 L 1396.40 875.20 L 1400.50 871.80 L 1404.20 867.90" fill="none" group-id="13" node-id="441" stroke="#000000" stroke-linecap="butt" stroke-width="1" target-height="16.199951" target-width="27.699951" target-x="1376.5" target-y="867.9"/><path d="M 1379.50 863.90 L 1377.80 860.80 L 1375.60 854.40 L 1375.00 851.10 L 1374.90 844.30" fill="none" group-id="13" node-id="443" stroke="#000000" stroke-linecap="butt" stroke-width="1" target-height="19.600037" target-width="4.5999756" target-x="1374.9" target-y="844.3"/><path d="M 1304.60 837.10 L 1304.00 838.50 L 1302.40 839.10 L 1300.90 838.50 L 1300.20 837.10 L 1300.90 835.60 L 1302.40 835.00 L 1304.00 835.60 L 1304.60 837.10 Z" fill="#c81733" fill-rule="nonzero" group-id="13" node-id="445" stroke="none" target-height="4.0999756" target-width="4.4000244" target-x="1300.2" target-y="835"/><path d="M 1377.30 843.70 L 1377.10 844.60 L 1376.50 845.30 L 1374.70 846.00 L 1372.90 845.30 L 1372.40 844.60 L 1372.40 842.90 L 1372.90 842.10 L 1373.70 841.60 L 1374.70 841.50 L 1376.50 842.10 L 1377.10 842.90 L 1377.30 843.70 Z" fill="#c81733" fill-rule="nonzero" group-id="13" node-id="447" stroke="none" target-height="4.5" target-width="4.9000244" target-x="1372.4" target-y="841.5"/><path d="M 1356.70 891.50 L 1356.10 893.10 L 1355.30 893.60 L 1354.40 893.80 L 1352.80 893.10 L 1352.30 892.40 L 1352.10 891.50 L 1352.80 889.80 L 1354.40 889.10 L 1355.30 889.30 L 1356.10 889.80 L 1356.70 891.50 Z" fill="#c81733" fill-rule="nonzero" group-id="13" node-id="449" stroke="none" target-height="4.700012" target-width="4.5999756" target-x="1352.1" target-y="889.1"/><path d="M 1297.70 919.80 L 1297.50 920.80 L 1296.90 921.60 L 1296.00 922.10 L 1295.00 922.30 L 1293.90 922.10 L 1292.50 920.80 L 1292.50 918.80 L 1293.90 917.50 L 1295.00 917.30 L 1296.00 917.50 L 1296.90 918.00 L 1297.50 918.80 L 1297.70 919.80 Z" fill="#c81733" fill-rule="nonzero" group-id="13" node-id="451" stroke="none" target-height="5" target-width="5.199951" target-x="1292.5" target-y="917.3"/><path d="M 1398.00 907.30 L 1397.80 908.40 L 1397.20 909.20 L 1396.30 909.70 L 1395.20 910.00 L 1394.10 909.70 L 1392.60 908.40 L 1392.40 907.30 L 1392.60 906.30 L 1393.20 905.50 L 1394.10 904.90 L 1395.20 904.70 L 1397.20 905.50 L 1398.00 907.30 Z" fill="#c81733" fill-rule="nonzero" group-id="13" node-id="453" stroke="none" target-height="5.299988" target-width="5.5999756" target-x="1392.4" target-y="904.7"/><g node-id="489"><path d="M 1394.10 1047.20 L 1392.10 1070.70 L 1391.80 1071.60 L 1390.50 1072.90 L 1318.50 1072.90 L 1317.20 1071.70 L 1316.90 1070.90 L 1304.40 989.90 L 1307.60 992.10 L 1310.40 994.50 L 1312.80 997.30 L 1316.00 1001.80 L 1318.70 1006.80 L 1325.60 1022.30 L 1328.20 1027.20 L 1332.30 1033.10 L 1334.80 1035.80 L 1337.30 1037.70 L 1340.00 1039.10 L 1342.90 1040.20 L 1347.40 1041.10 L 1352.30 1041.50 L 1367.50 1041.50 L 1378.50 1042.40 L 1383.90 1043.50 L 1389.10 1045.00 L 1394.10 1047.20 Z" fill="#3d9585" fill-opacity="0.28" fill-rule="nonzero" group-id="13,28" node-id="457" stroke="none" target-height="83" target-width="89.69995" target-x="1304.4" target-y="989.9"/></g><path d="M 1388.10 995.00 L 1385.60 1063.50" fill="none" group-id="13" node-id="460" stroke="#ffffff" stroke-linecap="butt" stroke-width="1" target-height="68.5" target-width="2.5" target-x="1385.6" target-y="995"/></g></svg>